TITLE ""
FILE "TOEIC LR Kinnojyukugo_11.mp3" MP3
  TRACK 01 AUDIO
    TITLE "TOEIC LR Kinnojyukugo_11_001"
    INDEX 01 00:00:00
  TRACK 02 AUDIO
    TITLE "TOEIC LR Kinnojyukugo_11_002"
    INDEX 01 00:00:12
  TRACK 03 AUDIO
    TITLE "TOEIC LR Kinnojyukugo_11_003"
    INDEX 01 00:01:41
  TRACK 04 AUDIO
    TITLE "TOEIC LR Kinnojyukugo_11_004"
    INDEX 01 00:02:05
  TRACK 05 AUDIO
    TITLE "TOEIC LR Kinnojyukugo_11_005"
    INDEX 01 00:03:22
  TRACK 06 AUDIO
    TITLE "TOEIC LR Kinnojyukugo_11_006"
    INDEX 01 00:03:63
  TRACK 07 AUDIO
    TITLE "TOEIC LR Kinnojyukugo_11_007"
    INDEX 01 00:05:70
  TRACK 08 AUDIO
    TITLE "TOEIC LR Kinnojyukugo_11_008"
    INDEX 01 00:06:40
  TRACK 09 AUDIO
    TITLE "TOEIC LR Kinnojyukugo_11_009"
    INDEX 01 00:08:65
  TRACK 10 AUDIO
    TITLE "TOEIC LR Kinnojyukugo_11_010"
    INDEX 01 00:09:15
  TRACK 11 AUDIO
    TITLE "TOEIC LR Kinnojyukugo_11_011"
    INDEX 01 00:11:39
  TRACK 12 AUDIO
    TITLE "TOEIC LR Kinnojyukugo_11_012"
    INDEX 01 00:12:39
  TRACK 13 AUDIO
    TITLE "TOEIC LR Kinnojyukugo_11_013"
    INDEX 01 00:13:50
  TRACK 14 AUDIO
    TITLE "TOEIC LR Kinnojyukugo_11_014"
    INDEX 01 00:14:12
  TRACK 15 AUDIO
    TITLE "TOEIC LR Kinnojyukugo_11_015"
    INDEX 01 00:15:26
  TRACK 16 AUDIO
    TITLE "TOEIC LR Kinnojyukugo_11_016"
    INDEX 01 00:15:67
  TRACK 17 AUDIO
    TITLE "TOEIC LR Kinnojyukugo_11_017"
    INDEX 01 00:17:32
  TRACK 18 AUDIO
    TITLE "TOEIC LR Kinnojyukugo_11_018"
    INDEX 01 00:17:71
  TRACK 19 AUDIO
    TITLE "TOEIC LR Kinnojyukugo_11_019"
    INDEX 01 00:19:53
  TRACK 20 AUDIO
    TITLE "TOEIC LR Kinnojyukugo_11_020"
    INDEX 01 00:20:03
  TRACK 21 AUDIO
    TITLE "TOEIC LR Kinnojyukugo_11_021"
    INDEX 01 00:21:58
  TRACK 22 AUDIO
    TITLE "TOEIC LR Kinnojyukugo_11_022"
    INDEX 01 00:22:59
  TRACK 23 AUDIO
    TITLE "TOEIC LR Kinnojyukugo_11_023"
    INDEX 01 00:24:19
  TRACK 24 AUDIO
    TITLE "TOEIC LR Kinnojyukugo_11_024"
    INDEX 01 00:24:56
  TRACK 25 AUDIO
    TITLE "TOEIC LR Kinnojyukugo_11_025"
    INDEX 01 00:25:73
  TRACK 26 AUDIO
    TITLE "TOEIC LR Kinnojyukugo_11_026"
    INDEX 01 00:26:53
  TRACK 27 AUDIO
    TITLE "TOEIC LR Kinnojyukugo_11_027"
    INDEX 01 00:28:32
  TRACK 28 AUDIO
    TITLE "TOEIC LR Kinnojyukugo_11_028"
    INDEX 01 00:28:73
  TRACK 29 AUDIO
    TITLE "TOEIC LR Kinnojyukugo_11_029"
    INDEX 01 00:31:05
  TRACK 30 AUDIO
    TITLE "TOEIC LR Kinnojyukugo_11_030"
    INDEX 01 00:31:30
  TRACK 31 AUDIO
    TITLE "TOEIC LR Kinnojyukugo_11_031"
    INDEX 01 00:33:39
  TRACK 32 AUDIO
    TITLE "TOEIC LR Kinnojyukugo_11_032"
    INDEX 01 00:34:37
  TRACK 33 AUDIO
    TITLE "TOEIC LR Kinnojyukugo_11_033"
    INDEX 01 00:35:60
  TRACK 34 AUDIO
    TITLE "TOEIC LR Kinnojyukugo_11_034"
    INDEX 01 00:36:22
  TRACK 35 AUDIO
    TITLE "TOEIC LR Kinnojyukugo_11_035"
    INDEX 01 00:37:43
  TRACK 36 AUDIO
    TITLE "TOEIC LR Kinnojyukugo_11_036"
    INDEX 01 00:38:09
  TRACK 37 AUDIO
    TITLE "TOEIC LR Kinnojyukugo_11_037"
    INDEX 01 00:40:59
  TRACK 38 AUDIO
    TITLE "TOEIC LR Kinnojyukugo_11_038"
    INDEX 01 00:41:25
  TRACK 39 AUDIO
    TITLE "TOEIC LR Kinnojyukugo_11_039"
    INDEX 01 00:44:27
  TRACK 40 AUDIO
    TITLE "TOEIC LR Kinnojyukugo_11_040"
    INDEX 01 00:44:53
  TRACK 41 AUDIO
    TITLE "TOEIC LR Kinnojyukugo_11_041"
    INDEX 01 00:47:57
  TRACK 42 AUDIO
    TITLE "TOEIC LR Kinnojyukugo_11_042"
    INDEX 01 00:48:58
  TRACK 43 AUDIO
    TITLE "TOEIC LR Kinnojyukugo_11_043"
    INDEX 01 00:49:71
  TRACK 44 AUDIO
    TITLE "TOEIC LR Kinnojyukugo_11_044"
    INDEX 01 00:50:38
  TRACK 45 AUDIO
    TITLE "TOEIC LR Kinnojyukugo_11_045"
    INDEX 01 00:51:39
  TRACK 46 AUDIO
    TITLE "TOEIC LR Kinnojyukugo_11_046"
    INDEX 01 00:52:03
  TRACK 47 AUDIO
    TITLE "TOEIC LR Kinnojyukugo_11_047"
    INDEX 01 00:53:75
  TRACK 48 AUDIO
    TITLE "TOEIC LR Kinnojyukugo_11_048"
    INDEX 01 00:54:45
  TRACK 49 AUDIO
    TITLE "TOEIC LR Kinnojyukugo_11_049"
    INDEX 01 00:56:60
  TRACK 50 AUDIO
    TITLE "TOEIC LR Kinnojyukugo_11_050"
    INDEX 01 00:57:12
  TRACK 51 AUDIO
    TITLE "TOEIC LR Kinnojyukugo_11_051"
    INDEX 01 00:59:25
  TRACK 52 AUDIO
    TITLE "TOEIC LR Kinnojyukugo_11_052"
    INDEX 01 01:00:26
  TRACK 53 AUDIO
    TITLE "TOEIC LR Kinnojyukugo_11_053"
    INDEX 01 01:01:59
  TRACK 54 AUDIO
    TITLE "TOEIC LR Kinnojyukugo_11_054"
    INDEX 01 01:02:19
  TRACK 55 AUDIO
    TITLE "TOEIC LR Kinnojyukugo_11_055"
    INDEX 01 01:03:58
  TRACK 56 AUDIO
    TITLE "TOEIC LR Kinnojyukugo_11_056"
    INDEX 01 01:04:24
  TRACK 57 AUDIO
    TITLE "TOEIC LR Kinnojyukugo_11_057"
    INDEX 01 01:05:74
  TRACK 58 AUDIO
    TITLE "TOEIC LR Kinnojyukugo_11_058"
    INDEX 01 01:06:39
  TRACK 59 AUDIO
    TITLE "TOEIC LR Kinnojyukugo_11_059"
    INDEX 01 01:08:14
  TRACK 60 AUDIO
    TITLE "TOEIC LR Kinnojyukugo_11_060"
    INDEX 01 01:08:41
  TRACK 61 AUDIO
    TITLE "TOEIC LR Kinnojyukugo_11_061"
    INDEX 01 01:10:17
  TRACK 62 AUDIO
    TITLE "TOEIC LR Kinnojyukugo_11_062"
    INDEX 01 01:11:18
  TRACK 63 AUDIO
    TITLE "TOEIC LR Kinnojyukugo_11_063"
    INDEX 01 01:12:57
  TRACK 64 AUDIO
    TITLE "TOEIC LR Kinnojyukugo_11_064"
    INDEX 01 01:13:19
  TRACK 65 AUDIO
    TITLE "TOEIC LR Kinnojyukugo_11_065"
    INDEX 01 01:14:58
  TRACK 66 AUDIO
    TITLE "TOEIC LR Kinnojyukugo_11_066"
    INDEX 01 01:15:20
  TRACK 67 AUDIO
    TITLE "TOEIC LR Kinnojyukugo_11_067"
    INDEX 01 01:17:05
  TRACK 68 AUDIO
    TITLE "TOEIC LR Kinnojyukugo_11_068"
    INDEX 01 01:17:44
  TRACK 69 AUDIO
    TITLE "TOEIC LR Kinnojyukugo_11_069"
    INDEX 01 01:19:37
  TRACK 70 AUDIO
    TITLE "TOEIC LR Kinnojyukugo_11_070"
    INDEX 01 01:19:63
  TRACK 71 AUDIO
    TITLE "TOEIC LR Kinnojyukugo_11_071"
    INDEX 01 01:21:54
  TRACK 72 AUDIO
    TITLE "TOEIC LR Kinnojyukugo_11_072"
    INDEX 01 01:22:55
  TRACK 73 AUDIO
    TITLE "TOEIC LR Kinnojyukugo_11_073"
    INDEX 01 01:24:13
  TRACK 74 AUDIO
    TITLE "TOEIC LR Kinnojyukugo_11_074"
    INDEX 01 01:24:50
  TRACK 75 AUDIO
    TITLE "TOEIC LR Kinnojyukugo_11_075"
    INDEX 01 01:25:67
  TRACK 76 AUDIO
    TITLE "TOEIC LR Kinnojyukugo_11_076"
    INDEX 01 01:26:33
  TRACK 77 AUDIO
    TITLE "TOEIC LR Kinnojyukugo_11_077"
    INDEX 01 01:28:48
  TRACK 78 AUDIO
    TITLE "TOEIC LR Kinnojyukugo_11_078"
    INDEX 01 01:29:12
  TRACK 79 AUDIO
    TITLE "TOEIC LR Kinnojyukugo_11_079"
    INDEX 01 01:31:40
  TRACK 80 AUDIO
    TITLE "TOEIC LR Kinnojyukugo_11_080"
    INDEX 01 01:31:66
  TRACK 81 AUDIO
    TITLE "TOEIC LR Kinnojyukugo_11_081"
    INDEX 01 01:34:21
  TRACK 82 AUDIO
    TITLE "TOEIC LR Kinnojyukugo_11_082"
    INDEX 01 01:35:21
  TRACK 83 AUDIO
    TITLE "TOEIC LR Kinnojyukugo_11_083"
    INDEX 01 01:36:40
  TRACK 84 AUDIO
    TITLE "TOEIC LR Kinnojyukugo_11_084"
    INDEX 01 01:37:06
  TRACK 85 AUDIO
    TITLE "TOEIC LR Kinnojyukugo_11_085"
    INDEX 01 01:38:33
  TRACK 86 AUDIO
    TITLE "TOEIC LR Kinnojyukugo_11_086"
    INDEX 01 01:38:70
  TRACK 87 AUDIO
    TITLE "TOEIC LR Kinnojyukugo_11_087"
    INDEX 01 01:40:55
  TRACK 88 AUDIO
    TITLE "TOEIC LR Kinnojyukugo_11_088"
    INDEX 01 01:41:19
  TRACK 89 AUDIO
    TITLE "TOEIC LR Kinnojyukugo_11_089"
    INDEX 01 01:43:12
  TRACK 90 AUDIO
    TITLE "TOEIC LR Kinnojyukugo_11_090"
    INDEX 01 01:43:38
  TRACK 91 AUDIO
    TITLE "TOEIC LR Kinnojyukugo_11_091"
    INDEX 01 01:45:33
  TRACK 92 AUDIO
    TITLE "TOEIC LR Kinnojyukugo_11_092"
    INDEX 01 01:46:32
  TRACK 93 AUDIO
    TITLE "TOEIC LR Kinnojyukugo_11_093"
    INDEX 01 01:47:53
  TRACK 94 AUDIO
    TITLE "TOEIC LR Kinnojyukugo_11_094"
    INDEX 01 01:48:15
  TRACK 95 AUDIO
    TITLE "TOEIC LR Kinnojyukugo_11_095"
    INDEX 01 01:49:31
  TRACK 96 AUDIO
    TITLE "TOEIC LR Kinnojyukugo_11_096"
    INDEX 01 01:49:70
  TRACK 97 AUDIO
    TITLE "TOEIC LR Kinnojyukugo_11_097"
    INDEX 01 01:51:67
  TRACK 98 AUDIO
    TITLE "TOEIC LR Kinnojyukugo_11_098"
    INDEX 01 01:52:31
  TRACK 99 AUDIO
    TITLE "TOEIC LR Kinnojyukugo_11_099"
    INDEX 01 01:54:43
  TRACK 100 AUDIO
    TITLE "TOEIC LR Kinnojyukugo_11_100"
    INDEX 01 01:54:71
  TRACK 101 AUDIO
    TITLE "TOEIC LR Kinnojyukugo_11_101"
    INDEX 01 01:57:09
  TRACK 102 AUDIO
    TITLE "TOEIC LR Kinnojyukugo_11_102"
    INDEX 01 01:58:10
  TRACK 103 AUDIO
    TITLE "TOEIC LR Kinnojyukugo_11_103"
    INDEX 01 01:59:51
  TRACK 104 AUDIO
    TITLE "TOEIC LR Kinnojyukugo_11_104"
    INDEX 01 02:00:15
  TRACK 105 AUDIO
    TITLE "TOEIC LR Kinnojyukugo_11_105"
    INDEX 01 02:01:20
  TRACK 106 AUDIO
    TITLE "TOEIC LR Kinnojyukugo_11_106"
    INDEX 01 02:01:57
  TRACK 107 AUDIO
    TITLE "TOEIC LR Kinnojyukugo_11_107"
    INDEX 01 02:03:15
  TRACK 108 AUDIO
    TITLE "TOEIC LR Kinnojyukugo_11_108"
    INDEX 01 02:03:54
  TRACK 109 AUDIO
    TITLE "TOEIC LR Kinnojyukugo_11_109"
    INDEX 01 02:05:45
  TRACK 110 AUDIO
    TITLE "TOEIC LR Kinnojyukugo_11_110"
    INDEX 01 02:05:69
  TRACK 111 AUDIO
    TITLE "TOEIC LR Kinnojyukugo_11_111"
    INDEX 01 02:07:60
  TRACK 112 AUDIO
    TITLE "TOEIC LR Kinnojyukugo_11_112"
    INDEX 01 02:08:59
  TRACK 113 AUDIO
    TITLE "TOEIC LR Kinnojyukugo_11_113"
    INDEX 01 02:10:15
  TRACK 114 AUDIO
    TITLE "TOEIC LR Kinnojyukugo_11_114"
    INDEX 01 02:10:54
  TRACK 115 AUDIO
    TITLE "TOEIC LR Kinnojyukugo_11_115"
    INDEX 01 02:11:73
  TRACK 116 AUDIO
    TITLE "TOEIC LR Kinnojyukugo_11_116"
    INDEX 01 02:12:37
  TRACK 117 AUDIO
    TITLE "TOEIC LR Kinnojyukugo_11_117"
    INDEX 01 02:14:58
  TRACK 118 AUDIO
    TITLE "TOEIC LR Kinnojyukugo_11_118"
    INDEX 01 02:15:22
  TRACK 119 AUDIO
    TITLE "TOEIC LR Kinnojyukugo_11_119"
    INDEX 01 02:17:48
  TRACK 120 AUDIO
    TITLE "TOEIC LR Kinnojyukugo_11_120"
    INDEX 01 02:18:01
  TRACK 121 AUDIO
    TITLE "TOEIC LR Kinnojyukugo_11_121"
    INDEX 01 02:20:25
  TRACK 122 AUDIO
    TITLE "TOEIC LR Kinnojyukugo_11_122"
    INDEX 01 02:21:27
  TRACK 123 AUDIO
    TITLE "TOEIC LR Kinnojyukugo_11_123"
    INDEX 01 02:22:40
  TRACK 124 AUDIO
    TITLE "TOEIC LR Kinnojyukugo_11_124"
    INDEX 01 02:23:04
  TRACK 125 AUDIO
    TITLE "TOEIC LR Kinnojyukugo_11_125"
    INDEX 01 02:24:23
  TRACK 126 AUDIO
    TITLE "TOEIC LR Kinnojyukugo_11_126"
    INDEX 01 02:24:68
  TRACK 127 AUDIO
    TITLE "TOEIC LR Kinnojyukugo_11_127"
    INDEX 01 02:27:51
  TRACK 128 AUDIO
    TITLE "TOEIC LR Kinnojyukugo_11_128"
    INDEX 01 02:28:15
  TRACK 129 AUDIO
    TITLE "TOEIC LR Kinnojyukugo_11_129"
    INDEX 01 02:30:30
  TRACK 130 AUDIO
    TITLE "TOEIC LR Kinnojyukugo_11_130"
    INDEX 01 02:30:61
  TRACK 131 AUDIO
    TITLE "TOEIC LR Kinnojyukugo_11_131"
    INDEX 01 02:33:04
  TRACK 132 AUDIO
    TITLE "TOEIC LR Kinnojyukugo_11_132"
    INDEX 01 02:34:06
  TRACK 133 AUDIO
    TITLE "TOEIC LR Kinnojyukugo_11_133"
    INDEX 01 02:35:27
  TRACK 134 AUDIO
    TITLE "TOEIC LR Kinnojyukugo_11_134"
    INDEX 01 02:35:66
  TRACK 135 AUDIO
    TITLE "TOEIC LR Kinnojyukugo_11_135"
    INDEX 01 02:37:28
  TRACK 136 AUDIO
    TITLE "TOEIC LR Kinnojyukugo_11_136"
    INDEX 01 02:37:63
  TRACK 137 AUDIO
    TITLE "TOEIC LR Kinnojyukugo_11_137"
    INDEX 01 02:40:55
  TRACK 138 AUDIO
    TITLE "TOEIC LR Kinnojyukugo_11_138"
    INDEX 01 02:41:14
  TRACK 139 AUDIO
    TITLE "TOEIC LR Kinnojyukugo_11_139"
    INDEX 01 02:43:28
  TRACK 140 AUDIO
    TITLE "TOEIC LR Kinnojyukugo_11_140"
    INDEX 01 02:43:52
  TRACK 141 AUDIO
    TITLE "TOEIC LR Kinnojyukugo_11_141"
    INDEX 01 02:45:64
  TRACK 142 AUDIO
    TITLE "TOEIC LR Kinnojyukugo_11_142"
    INDEX 01 02:46:64
  TRACK 143 AUDIO
    TITLE "TOEIC LR Kinnojyukugo_11_143"
    INDEX 01 02:48:04
  TRACK 144 AUDIO
    TITLE "TOEIC LR Kinnojyukugo_11_144"
    INDEX 01 02:48:43
  TRACK 145 AUDIO
    TITLE "TOEIC LR Kinnojyukugo_11_145"
    INDEX 01 02:50:24
  TRACK 146 AUDIO
    TITLE "TOEIC LR Kinnojyukugo_11_146"
    INDEX 01 02:50:64
  TRACK 147 AUDIO
    TITLE "TOEIC LR Kinnojyukugo_11_147"
    INDEX 01 02:53:17
  TRACK 148 AUDIO
    TITLE "TOEIC LR Kinnojyukugo_11_148"
    INDEX 01 02:53:54
  TRACK 149 AUDIO
    TITLE "TOEIC LR Kinnojyukugo_11_149"
    INDEX 01 02:55:69
  TRACK 150 AUDIO
    TITLE "TOEIC LR Kinnojyukugo_11_150"
    INDEX 01 02:56:27
  TRACK 151 AUDIO
    TITLE "TOEIC LR Kinnojyukugo_11_151"
    INDEX 01 02:58:42
  TRACK 152 AUDIO
    TITLE "TOEIC LR Kinnojyukugo_11_152"
    INDEX 01 02:59:51
  TRACK 153 AUDIO
    TITLE "TOEIC LR Kinnojyukugo_11_153"
    INDEX 01 03:00:66
  TRACK 154 AUDIO
    TITLE "TOEIC LR Kinnojyukugo_11_154"
    INDEX 01 03:01:40
  TRACK 155 AUDIO
    TITLE "TOEIC LR Kinnojyukugo_11_155"
    INDEX 01 03:04:24
  TRACK 156 AUDIO
    TITLE "TOEIC LR Kinnojyukugo_11_156"
    INDEX 01 03:04:64
  TRACK 157 AUDIO
    TITLE "TOEIC LR Kinnojyukugo_11_157"
    INDEX 01 03:08:46
  TRACK 158 AUDIO
    TITLE "TOEIC LR Kinnojyukugo_11_158"
    INDEX 01 03:09:10
  TRACK 159 AUDIO
    TITLE "TOEIC LR Kinnojyukugo_11_159"
    INDEX 01 03:13:08
  TRACK 160 AUDIO
    TITLE "TOEIC LR Kinnojyukugo_11_160"
    INDEX 01 03:13:33
  TRACK 161 AUDIO
    TITLE "TOEIC LR Kinnojyukugo_11_161"
    INDEX 01 03:17:29
  TRACK 162 AUDIO
    TITLE "TOEIC LR Kinnojyukugo_11_162"
    INDEX 01 03:18:31
  TRACK 163 AUDIO
    TITLE "TOEIC LR Kinnojyukugo_11_163"
    INDEX 01 03:19:38
  TRACK 164 AUDIO
    TITLE "TOEIC LR Kinnojyukugo_11_164"
    INDEX 01 03:19:75
  TRACK 165 AUDIO
    TITLE "TOEIC LR Kinnojyukugo_11_165"
    INDEX 01 03:21:54
  TRACK 166 AUDIO
    TITLE "TOEIC LR Kinnojyukugo_11_166"
    INDEX 01 03:22:19
  TRACK 167 AUDIO
    TITLE "TOEIC LR Kinnojyukugo_11_167"
    INDEX 01 03:24:43
  TRACK 168 AUDIO
    TITLE "TOEIC LR Kinnojyukugo_11_168"
    INDEX 01 03:25:05
  TRACK 169 AUDIO
    TITLE "TOEIC LR Kinnojyukugo_11_169"
    INDEX 01 03:27:18
  TRACK 170 AUDIO
    TITLE "TOEIC LR Kinnojyukugo_11_170"
    INDEX 01 03:27:43
  TRACK 171 AUDIO
    TITLE "TOEIC LR Kinnojyukugo_11_171"
    INDEX 01 03:29:56
  TRACK 172 AUDIO
    TITLE "TOEIC LR Kinnojyukugo_11_172"
    INDEX 01 03:30:55
  TRACK 173 AUDIO
    TITLE "TOEIC LR Kinnojyukugo_11_173"
    INDEX 01 03:32:07
  TRACK 174 AUDIO
    TITLE "TOEIC LR Kinnojyukugo_11_174"
    INDEX 01 03:32:46
  TRACK 175 AUDIO
    TITLE "TOEIC LR Kinnojyukugo_11_175"
    INDEX 01 03:34:10
  TRACK 176 AUDIO
    TITLE "TOEIC LR Kinnojyukugo_11_176"
    INDEX 01 03:34:49
  TRACK 177 AUDIO
    TITLE "TOEIC LR Kinnojyukugo_11_177"
    INDEX 01 03:37:63
  TRACK 178 AUDIO
    TITLE "TOEIC LR Kinnojyukugo_11_178"
    INDEX 01 03:38:29
  TRACK 179 AUDIO
    TITLE "TOEIC LR Kinnojyukugo_11_179"
    INDEX 01 03:41:61
  TRACK 180 AUDIO
    TITLE "TOEIC LR Kinnojyukugo_11_180"
    INDEX 01 03:42:13
  TRACK 181 AUDIO
    TITLE "TOEIC LR Kinnojyukugo_11_181"
    INDEX 01 03:45:43
  TRACK 182 AUDIO
    TITLE "TOEIC LR Kinnojyukugo_11_182"
    INDEX 01 03:46:48
  TRACK 183 AUDIO
    TITLE "TOEIC LR Kinnojyukugo_11_183"
    INDEX 01 03:47:56
  TRACK 184 AUDIO
    TITLE "TOEIC LR Kinnojyukugo_11_184"
    INDEX 01 03:48:18
  TRACK 185 AUDIO
    TITLE "TOEIC LR Kinnojyukugo_11_185"
    INDEX 01 03:50:15
  TRACK 186 AUDIO
    TITLE "TOEIC LR Kinnojyukugo_11_186"
    INDEX 01 03:50:54
  TRACK 187 AUDIO
    TITLE "TOEIC LR Kinnojyukugo_11_187"
    INDEX 01 03:54:32
  TRACK 188 AUDIO
    TITLE "TOEIC LR Kinnojyukugo_11_188"
    INDEX 01 03:54:69
  TRACK 189 AUDIO
    TITLE "TOEIC LR Kinnojyukugo_11_189"
    INDEX 01 03:58:22
  TRACK 190 AUDIO
    TITLE "TOEIC LR Kinnojyukugo_11_190"
    INDEX 01 03:58:52
  TRACK 191 AUDIO
    TITLE "TOEIC LR Kinnojyukugo_11_191"
    INDEX 01 04:02:04
  TRACK 192 AUDIO
    TITLE "TOEIC LR Kinnojyukugo_11_192"
    INDEX 01 04:03:12
  TRACK 193 AUDIO
    TITLE "TOEIC LR Kinnojyukugo_11_193"
    INDEX 01 04:04:54
  TRACK 194 AUDIO
    TITLE "TOEIC LR Kinnojyukugo_11_194"
    INDEX 01 04:05:18
  TRACK 195 AUDIO
    TITLE "TOEIC LR Kinnojyukugo_11_195"
    INDEX 01 04:06:31
  TRACK 196 AUDIO
    TITLE "TOEIC LR Kinnojyukugo_11_196"
    INDEX 01 04:07:03
  TRACK 197 AUDIO
    TITLE "TOEIC LR Kinnojyukugo_11_197"
    INDEX 01 04:09:61
  TRACK 198 AUDIO
    TITLE "TOEIC LR Kinnojyukugo_11_198"
    INDEX 01 04:10:16
  TRACK 199 AUDIO
    TITLE "TOEIC LR Kinnojyukugo_11_199"
    INDEX 01 04:13:26
  TRACK 200 AUDIO
    TITLE "TOEIC LR Kinnojyukugo_11_200"
    INDEX 01 04:13:49
  TRACK 201 AUDIO
    TITLE "TOEIC LR Kinnojyukugo_11_201"
    INDEX 01 04:16:59
  TRACK 202 AUDIO
    TITLE "TOEIC LR Kinnojyukugo_11_202"
    INDEX 01 04:17:65
  TRACK 203 AUDIO
    TITLE "TOEIC LR Kinnojyukugo_11_203"
    INDEX 01 04:18:74
  TRACK 204 AUDIO
    TITLE "TOEIC LR Kinnojyukugo_11_204"
    INDEX 01 04:19:38
  TRACK 205 AUDIO
    TITLE "TOEIC LR Kinnojyukugo_11_205"
    INDEX 01 04:21:39
  TRACK 206 AUDIO
    TITLE "TOEIC LR Kinnojyukugo_11_206"
    INDEX 01 04:22:01
  TRACK 207 AUDIO
    TITLE "TOEIC LR Kinnojyukugo_11_207"
    INDEX 01 04:24:10
  TRACK 208 AUDIO
    TITLE "TOEIC LR Kinnojyukugo_11_208"
    INDEX 01 04:24:53
  TRACK 209 AUDIO
    TITLE "TOEIC LR Kinnojyukugo_11_209"
    INDEX 01 04:26:24
  TRACK 210 AUDIO
    TITLE "TOEIC LR Kinnojyukugo_11_210"
    INDEX 01 04:26:58
  TRACK 211 AUDIO
    TITLE "TOEIC LR Kinnojyukugo_11_211"
    INDEX 01 04:28:29
  TRACK 212 AUDIO
    TITLE "TOEIC LR Kinnojyukugo_11_212"
    INDEX 01 04:29:38
  TRACK 213 AUDIO
    TITLE "TOEIC LR Kinnojyukugo_11_213"
    INDEX 01 04:30:57
  TRACK 214 AUDIO
    TITLE "TOEIC LR Kinnojyukugo_11_214"
    INDEX 01 04:31:22
  TRACK 215 AUDIO
    TITLE "TOEIC LR Kinnojyukugo_11_215"
    INDEX 01 04:32:37
  TRACK 216 AUDIO
    TITLE "TOEIC LR Kinnojyukugo_11_216"
    INDEX 01 04:33:01
  TRACK 217 AUDIO
    TITLE "TOEIC LR Kinnojyukugo_11_217"
    INDEX 01 04:35:45
  TRACK 218 AUDIO
    TITLE "TOEIC LR Kinnojyukugo_11_218"
    INDEX 01 04:36:07
  TRACK 219 AUDIO
    TITLE "TOEIC LR Kinnojyukugo_11_219"
    INDEX 01 04:38:24
  TRACK 220 AUDIO
    TITLE "TOEIC LR Kinnojyukugo_11_220"
    INDEX 01 04:38:47
  TRACK 221 AUDIO
    TITLE "TOEIC LR Kinnojyukugo_11_221"
    INDEX 01 04:40:64
